<svg xmlns="http://www.w3.org/2000/svg" width="100%" viewBox="0 0 117 34" fill="none">
    <g clip-path="url(#clip0_265_94)">
        <path
            d="M17.481 0H26.9028V9.46939L24.3253 6.88263L12.7547 20.7351L5.79296 12.5001V25.0002H0V3.45158H5.92311L12.7547 11.6738L20.2294 2.76383L17.481 0Z"
            fill="#151515"></path>
        <path d="M20.1406 25.0005H25.9336V13.5371L20.1406 20.6353V25.0005Z" fill="#151515"></path>
        <path
            d="M50.1642 7.94336L39.155 34.0009H33.3621L37.3916 25.0191L30.2461 7.95363H36.2611L40.3213 19.0038L44.3508 7.95363L50.1642 7.94336Z"
            fill="#151515"></path>
        <path
            d="M52.6196 8.59152C53.5333 6.90356 54.9027 5.5096 56.57 4.57026C58.3276 3.59333 60.3091 3.09684 62.317 3.13051C64.9405 3.13051 67.1862 3.82685 69.0542 5.21946C70.9281 6.6197 72.2538 8.63673 72.8005 10.919H66.8825C66.4833 10.0391 65.8308 9.29987 65.0094 8.79677C64.1743 8.30517 63.2208 8.05391 62.2532 8.07051C60.5945 8.07051 59.2513 8.65055 58.2237 9.81048C57.1961 10.9704 56.6857 12.522 56.6925 14.4655C56.6925 16.4073 57.2029 17.9583 58.2237 19.1182C59.2445 20.2781 60.5877 20.859 62.2532 20.8607C63.221 20.8765 64.1745 20.6243 65.0094 20.1318C65.8312 19.6304 66.4839 18.8918 66.8825 18.0121H72.8005C72.2555 20.2903 70.9289 22.3021 69.0542 23.6937C67.1828 25.076 64.9371 25.7672 62.317 25.7672C60.3091 25.8009 58.3276 25.3045 56.57 24.3276C54.9052 23.3919 53.5361 22.0036 52.6196 20.3218C51.6888 18.5084 51.2031 16.4973 51.2031 14.4566C51.2031 12.4159 51.6888 10.4049 52.6196 8.59152Z"
            fill="#151515"></path>
        <path
            d="M91.5602 14.0705C90.9277 15.1778 89.9863 16.0745 88.8526 16.6496C87.6361 17.3031 86.1245 17.6299 84.3177 17.6299H80.9797V25.6109H75.5977V3.38477H84.3254C86.0896 3.38477 87.58 3.6901 88.7964 4.30087C89.9428 4.84831 90.8981 5.73117 91.5372 6.83377C92.1587 7.96731 92.4729 9.24522 92.4483 10.5394C92.4594 11.7737 92.1535 12.9899 91.5602 14.0705ZM86.2011 12.5975C86.7115 12.1125 86.9666 11.4247 86.9666 10.5445C86.9666 9.66431 86.7115 8.97143 86.2011 8.49154C85.6907 8.01166 84.9251 7.76277 83.9043 7.76277H80.9746V13.3366H83.9043C84.937 13.3297 85.7043 13.0817 86.2062 12.5924L86.2011 12.5975Z"
            fill="#151515"></path>
        <path
            d="M99.9806 24.3735C98.2643 23.4193 96.8386 22.0132 95.8566 20.306C94.8545 18.5155 94.3281 16.4955 94.3281 14.4409C94.3281 12.3863 94.8545 10.3663 95.8566 8.57578C96.8428 6.8759 98.2678 5.47579 99.9806 4.52369C101.735 3.56733 103.7 3.06641 105.696 3.06641C107.692 3.06641 109.656 3.56733 111.411 4.52369C113.116 5.47242 114.528 6.87421 115.494 8.57578C116.478 10.373 116.992 12.3915 116.989 14.4429C116.987 16.4943 116.467 18.5114 115.479 20.306C114.511 22.0104 113.099 23.4168 111.396 24.3735C109.644 25.3301 107.683 25.8312 105.689 25.8312C103.696 25.8312 101.735 25.3301 99.9832 24.3735H99.9806ZM109.933 19.1179C110.993 17.9374 111.523 16.3754 111.523 14.4319C111.523 12.4884 110.993 10.9213 109.933 9.73059C108.872 8.56039 107.46 7.9752 105.697 7.9752C103.934 7.9752 102.513 8.55524 101.433 9.71518C100.371 10.8768 99.8411 12.449 99.8428 14.4319C99.8445 16.4147 100.374 17.9819 101.433 19.1333C102.493 20.3069 103.914 20.8928 105.697 20.8911C107.48 20.8894 108.891 20.2983 109.931 19.1179H109.933Z"
            fill="#151515"></path>
    </g>
    <defs>
        <clipPath id="clip0_265_94">
            <rect width="117" height="34" fill="white"></rect>
        </clipPath>
    </defs>
</svg>